<?xml version="1.0" encoding="UTF-8"?>
<svg width="752pt" height="752pt" version="1.1" viewBox="0 0 752 752" xmlns="http://www.w3.org/2000/svg">
 <path d="m366.25 488.23v-248.28c-4.6523-3.1836-9.2148-6.1367-13.688-8.8516-5.8438-3.5508-11.906-6.9375-18.184-10.168l-0.003906-0.003906c-21.816-11.297-45.113-19.48-69.203-24.316-21.312-4.207-43.059-5.7812-64.754-4.6953v252.02c30.129-1.4453 60.293 1.9531 89.344 10.07 27.008 7.6875 52.773 19.215 76.508 34.223zm19.508-248.26v248.26c23.727-15.008 49.484-26.531 76.484-34.223 29.047-8.1133 59.207-11.516 89.332-10.07v-252.02c-21.711-1.0898-43.477 0.49219-64.805 4.707-24.102 4.8359-47.41 13.031-69.238 24.34-6.2695 3.2266-12.316 6.6133-18.141 10.156-4.4453 2.7031-8.9922 5.6406-13.633 8.8203zm-204.85 214.36c0 0.25 0 0.5 0.035156 0.75781 0.19531 2.5781 1.4102 4.9727 3.375 6.6562 1.9609 1.6836 4.5156 2.5156 7.0938 2.3164 31.293-2.6367 62.809 0.32422 93.066 8.7383 30.738 8.8398 59.738 22.871 85.742 41.496 3.3711 2.4727 7.9453 2.5195 11.367 0.11328 26.051-18.676 55.109-32.75 85.918-41.609 30.133-8.3984 61.52-11.383 92.695-8.8125 0.37891 0.042969 0.76172 0.0625 1.1406 0.0625 5.3867 0 9.7539-4.3633 9.7578-9.75v-228.76c8.9023 0.03125 16.75 0.085938 19.281 0.16406 3.1992 0.10156 6.5234 0.25391 9.9688 0.45312v272.89c-38.281-1.8555-76.609 2.5352-113.48 12.992-38.48 11.121-75.289 27.387-109.42 48.355-35.68-21.785-74.262-38.402-114.6-49.363-36.215-9.7031-73.715-13.738-111.17-11.965v-272.91c3.4297-0.19922 6.7539-0.35156 9.9688-0.45312 2.4492-0.074219 10.266-0.12891 19.281-0.16016z" fill-rule="evenodd"/>
</svg>
