<?xml version="1.0" encoding="UTF-8"?>
<svg width="752pt" height="752pt" version="1.1" viewBox="0 0 752 752" xmlns="http://www.w3.org/2000/svg">
 <g>
  <path d="m538.79 242.81h-62.449l-4.7422-19.238c-5.6172-22.352-28.121-39.961-51.203-39.961h-88.797c-23.082 0-45.582 17.609-51.207 39.961l-4.7383 19.238h-62.449c-32.707 0-59.199 26.492-59.199 59.199v207.19c0 32.707 26.492 59.199 59.199 59.199h325.59c32.707 0 59.199-26.492 59.199-59.199v-207.2c0-32.707-26.492-59.195-59.199-59.195zm-310.79 88.793c-8.1367 0-14.801-6.6641-14.801-14.801s6.6641-14.801 14.801-14.801c8.1367 0 14.801 6.6641 14.801 14.801 0 8.1406-6.6641 14.801-14.801 14.801zm147.99 177.59c-57.133 0-103.6-46.473-103.6-103.6s46.465-103.6 103.6-103.6 103.6 46.473 103.6 103.6-46.465 103.6-103.6 103.6zm0-177.59c-40.844 0-73.996 33.152-73.996 73.996s33.152 73.996 73.996 73.996 73.996-33.152 73.996-73.996c0.003906-40.84-33.152-73.996-73.996-73.996z"/>
  <path d="m450 405.6c0 40.867-33.133 73.996-74 73.996s-73.996-33.129-73.996-73.996c0-40.867 33.129-74 73.996-74s74 33.133 74 74"/>
  <path d="m450 405.6c0 40.867-33.133 73.996-74 73.996s-73.996-33.129-73.996-73.996c0-40.867 33.129-74 73.996-74s74 33.133 74 74"/>
 </g>
</svg>
