<?xml version="1.0" encoding="UTF-8"?>
<svg width="752pt" height="752pt" version="1.1" viewBox="0 0 752 752" xmlns="http://www.w3.org/2000/svg">
 <g>
  <path d="m592.07 273.89c0 18.797-15.242 34.039-34.039 34.039-18.801 0-34.039-15.242-34.039-34.039 0-18.801 15.238-34.039 34.039-34.039 18.797 0 34.039 15.238 34.039 34.039"/>
  <path d="m222.09 438.16c0 17.164-13.914 31.078-31.078 31.078-17.164 0-31.078-13.914-31.078-31.078 0-17.164 13.914-31.078 31.078-31.078 17.164 0 31.078 13.914 31.078 31.078"/>
  <path d="m482.56 535.84c0 11.441-9.2773 20.719-20.719 20.719-11.445 0-20.723-9.2773-20.723-20.719 0-11.445 9.2773-20.719 20.723-20.719 11.441 0 20.719 9.2734 20.719 20.719"/>
  <path d="m525.48 343.44h-31.078c-2.9609-20.719-10.359-39.957-22.199-54.758l22.199-23.676c5.918-5.918 5.918-16.281 0-22.199-5.918-5.918-16.281-5.918-22.199 0l-22.199 22.199c-16.281-11.84-34.039-20.719-54.758-22.199v-32.559c0-8.8789-7.3984-16.281-16.281-16.281-8.8789 0-16.281 7.3984-16.281 16.281l0.003906 32.559c-20.719 2.9609-39.957 10.359-54.758 22.199l-23.68-22.199c-5.9219-5.9219-16.281-5.9219-23.68 0-5.918 5.918-5.918 16.281 0 22.199l22.199 22.199c-11.84 16.281-20.719 34.039-22.199 54.758l-31.078-0.003906c-8.8789 0-16.281 7.3984-16.281 16.281 0 8.8789 7.3984 16.281 16.281 16.281h32.559c2.9609 20.719 10.359 39.957 22.199 54.758l-22.199 22.199c-5.918 5.918-5.918 16.281 0 22.199 5.918 5.918 16.281 5.918 22.199 0l22.199-22.199c16.281 11.84 34.039 20.719 54.758 22.199v32.559c0 8.8789 7.3984 16.281 16.281 16.281 8.8789 0 16.281-7.3984 16.281-16.281v-32.559c20.719-2.9609 39.957-10.359 54.758-22.199l22.199 22.199c5.918 5.918 16.281 5.918 22.199 0 5.918-5.918 5.918-16.281 0-22.199l-22.199-22.199c11.84-16.281 20.719-34.039 22.199-54.758h32.559c8.8789 0 16.281-7.3984 16.281-16.281-0.007813-7.3984-7.4062-14.801-16.285-14.801zm-186.47 82.879c-10.359 0-19.238-8.8789-19.238-19.238s8.8789-19.238 19.238-19.238 19.238 8.8789 19.238 19.238-8.8789 19.238-19.238 19.238zm32.559-76.957c-17.758 0-32.559-14.801-32.559-32.559 0-17.758 14.801-32.559 32.559-32.559s32.559 14.801 32.559 32.559c0 17.758-14.801 32.559-32.559 32.559zm69.555 54.758c-10.359 0-19.238-8.8789-19.238-19.238 0-10.359 8.8789-19.238 19.238-19.238 10.359 0 19.238 8.8789 19.238 19.238 0.003906 10.359-8.8789 19.238-19.238 19.238z"/>
 </g>
</svg>
