<?xml version="1.0" encoding="UTF-8"?>
<svg width="752pt" height="752pt" version="1.1" viewBox="0 0 752 752" xmlns="http://www.w3.org/2000/svg">
 <g>
  <path d="m164.25 188.62c-0.45312 2.4023-0.91016 4.8047-1.3633 7.207 4.2852 4.9688 8.5742 9.9375 12.859 14.906-1.0391 3.1172-2.0781 6.2344-3.1172 9.3516 1.5703 1.9492 3.1406 3.9023 4.7148 5.8516-2.0352 2.2383-4.0703 4.4766-6.1055 6.7109-0.14844 0.86328-0.29297 1.7227-0.44141 2.5859 1.6133-0.18359 3.2266-0.36719 4.8398-0.55078 4-2.6914 7.9961-5.3828 11.996-8.0703-0.22656-3.5078-0.45312-7.0156-0.68359-10.523 1.7109 1.9062 3.4258 3.8125 5.1367 5.7188 1.957-2.0352 3.9141-4.0742 5.875-6.1094-0.22656 1.8203-0.45312 3.6367-0.68359 5.457 1.3008 0.8125 2.5977 1.625 3.8984 2.4375-2.5 2.1094-5 4.2227-7.5 6.332 5.3242-0.74609 10.652-1.4922 15.977-2.2422 3.6367-0.35547 7.2734-0.71484 10.91-1.0703 2.4023-1.4297 4.8047-2.8594 7.2109-4.2852 3.5391 0.066407 7.0781 0.12891 10.621 0.19531 1.918 0.45312 3.832 0.91016 5.75 1.3633 1.1055 1.4297 2.207 2.8594 3.3125 4.2852-1.8828-0.48828-3.7656-0.97266-5.6523-1.4609-4.8047 0.16406-9.6133 0.32422-14.418 0.48828-0.61719 0.42188-1.2344 0.84375-1.8516 1.2656 4.5156 0.58594 9.0273 1.168 13.543 1.7539l9.4219 4.0195c2.7383 0.96484 5.4727 1.9336 8.2109 2.8984 3.8984 2.2734 7.793 4.5469 11.691 6.8203-0.31641-1.875-0.63281-3.75-0.94922-5.625-1.3398 0.31641-2.6797 0.63281-4.0195 0.94922-0.097656-1.1953-0.19531-2.3867-0.29297-3.582 3.9219 0.12109 7.8438 0.24219 11.766 0.36719-1.5352 1.8008-3.0703 3.6055-4.6016 5.4062 1.7031 1.2188 3.4102 2.4375 5.1133 3.6523 1.4141 0.39062 2.8242 0.78125 4.2383 1.168 0.51172 0.85156 1.0234 1.7031 1.5352 2.5586-2.582-0.58594-5.1641-1.168-7.7461-1.7539 3.0703 2.7539 6.1367 5.5039 9.207 8.2578 2.5078 1.5117 5.0156 3.0195 7.5273 4.5312 0.85156 2.3398 1.7031 4.6758 2.5586 7.0156 0.023437 2.582 0.046874 5.1641 0.074218 7.7461 4.0938-0.75391 8.1836-1.5117 12.277-2.2656 1.9492-0.14453 3.8984-0.29297 5.8438-0.4375 2.1914-1.1211 4.3828-2.2422 6.5781-3.3594 1.8516-0.12109 3.7031-0.24219 5.5547-0.36719 4.3594-2.7539 8.7188-5.5039 13.078-8.2578 3.6523 0.14453 7.3086 0.29297 10.961 0.4375 0.33984-1.4141 0.68359-2.8242 1.0234-4.2383-1.0234-0.85156-2.0469-1.7031-3.0703-2.5586 1.1953-1.4141 2.3867-2.8242 3.582-4.2383 0.48828 0.12109 0.97266 0.24219 1.4609 0.36719 0.4375-0.68359 0.875-1.3633 1.3164-2.0469 4.4805 0.12109 8.9648 0.24219 13.445 0.36719 3.8984 1.9258 7.793 3.8477 11.691 5.7734 2.6211 1.7852 5.2383 3.5703 7.8594 5.3555 2.0586 2.2812 4.1133 4.5625 6.1719 6.8477 0.75391 1.7539 1.5117 3.5078 2.2656 5.2617 2.4609 1.4375 4.9219 2.875 7.3789 4.3125 0.48828 3.3125 0.97266 6.625 1.4609 9.9375 3.7734 3.043 7.5508 6.0898 11.324 9.1328 2.3398 4.043 4.6758 8.0859 7.0156 12.129 4.6523 0.90234 9.3047 1.8008 13.957 2.7031 1.6328 3.6289 3.2656 7.2578 4.8945 10.887 1 1.3398 1.9961 2.6797 2.9961 4.0195-0.65625 0.875-1.3164 1.7539-1.9727 2.6289 0.97266 3.3359 1.9492 6.6719 2.9219 10.012-0.21875 4.75-0.4375 9.5-0.65625 14.25-2.4375 6.5039-4.8711 13.008-7.3086 19.512 0.046874 2.9961 0.097656 5.9922 0.14453 8.9883-0.85156 3.7266-1.7031 7.4531-2.5586 11.18 0.73047 1.582 1.4609 3.168 2.1914 4.75 0.94922 1.2422 1.8984 2.4844 2.8516 3.7266 1.7773 0.097656 3.5547 0.19531 5.3359 0.29297 0.097657-2.4609 0.19531-4.9219 0.29297-7.3789-0.90234-2.2656-1.8008-4.5312-2.7031-6.7969 0.29297-1.6797 0.58594-3.3594 0.875-5.043 2.4375 1.7305 4.8711 3.457 7.3086 5.1875 0.097656 2.1172 0.19531 4.2383 0.29297 6.3555 1.2656 0.36719 2.5312 0.73047 3.8008 1.0977 1.5117-2.3633 3.0195-4.7266 4.5312-7.0859-0.19531 3.043-0.39062 6.0898-0.58594 9.1328-2.0234 2.3867-4.043 4.7734-6.0664 7.1602-1.4375 3.0195-2.875 6.0391-4.3125 9.0625-1.6562 1.1445-3.3125 2.2891-4.9688 3.4336 1.9727 2.4375 3.9453 4.8711 5.918 7.3086-0.074219 2.2148-0.14453 4.4336-0.21875 6.6484 1.9258 2.6055 3.8477 5.2109 5.7734 7.8203 0.90234 2.5586 1.8008 5.1133 2.7031 7.6719 3.8711 4.6758 7.7461 9.3516 11.617 14.031 0.97266-0.023437 1.9492-0.046875 2.9219-0.074219-0.39062-2.5586-0.78125-5.1133-1.168-7.6719 2.6797-1.0234 5.3594-2.0469 8.0391-3.0703-0.39062 1.2656-0.78125 2.5312-1.168 3.8008 0.074218 3.3125 0.14453 6.625 0.21875 9.9375-0.82812 2.1172-1.6562 4.2383-2.4844 6.3555-0.39062-0.53516-0.78125-1.0703-1.168-1.6094-0.36719 0.78125-0.73047 1.5586-1.0977 2.3398 0.47656 1.1602 0.94922 2.3242 1.4258 3.4844 0.57812-0.035156 1.1562-0.074218 1.7344-0.10937 0.60547-0.6875 1.207-1.3711 1.8125-2.0586 0.29297 0.70703 0.58594 1.4141 0.875 2.1172-0.36719 0.58594-0.73047 1.168-1.0977 1.7539l6.5039 6.5039c2.0234 2.582 4.043 5.1641 6.0664 7.7461 1.4375 6.6758 2.875 13.348 4.3125 20.02 1.2891 1.0234 2.582 2.0469 3.8711 3.0703-0.48047 1.2617-0.95703 2.5273-1.4375 3.7891 1.8906-0.33203 3.7773-0.66016 5.668-0.99219 0.36719 0.82422 0.73438 1.6523 1.1016 2.4766 3.3398 0.70312 6.6758 1.4023 10.016 2.1055 1.2422 1.1953 2.4844 2.3867 3.7266 3.582 0.53516 1.6797 1.0703 3.3594 1.6094 5.043 1.8516 2.7031 3.7031 5.4062 5.5547 8.1094 1.875 1.8984 3.75 3.8008 5.625 5.6992 0.26953 1.9492 0.53516 3.8984 0.80469 5.8438 1.582 0.54688 3.1602 1.0898 4.7422 1.6367 1.0078 0.35938 2.0156 0.72266 3.0273 1.082 0.625 0.57422 1.2461 1.1484 1.8711 1.7227 0.73438 0.85937 1.4648 1.7148 2.1992 2.5742 0.31641 0.65625 0.63281 1.3164 0.94922 1.9727-0.78125 0.90234-1.5586 1.8008-2.3398 2.7031-1.7539-0.68359-3.5078-1.3633-5.2617-2.0469-0.75391-1.1289-1.5078-2.2578-2.2617-3.3867 0.097656-0.91797 0.19141-1.832 0.28906-2.75-1-0.046875-1.9961-0.097656-2.9961-0.14453-1 2.3633-1.9961 4.7266-2.9961 7.0898 1.4141 2.2148 2.8242 4.4336 4.2383 6.6484 7.3789-0.82812 14.762-1.6562 22.141-2.4844 2.2891-1.4609 4.5781-2.9219 6.8672-4.3828h5.1875c3.2148-3.1172 6.4297-6.2344 9.6445-9.3516-0.63281-1.7773-1.2656-3.5547-1.8984-5.3359 0.94922-3.1172 1.8984-6.2344 2.8516-9.3516 2.1445-3.457 4.2852-6.918 6.4297-10.375 0.875-5.0898 1.7539-10.18 2.6289-15.273 0.875-6.5039 1.7539-13.008 2.6289-19.512 0.59766-7.168 1.207-14.328 1.8164-21.488-0.31641-5.2383-0.63281-10.473-0.94922-15.711-1.6328-4.6523-3.2656-9.3047-4.8945-13.957-1.1797-0.25391-2.3594-0.50391-3.5352-0.75781-0.26953-2.0898-0.53906-4.1797-0.80859-6.2734-1.2656-2.6953-2.5312-5.3906-3.7969-8.0859-0.87891-4.5469-1.7617-9.0977-2.6406-13.645-2.4766-4.9141-4.9531-9.8281-7.4258-14.746-1.9141-3.9648-3.8164-8.1445-5.6875-12.539-2-4.6992-3.793-9.2656-5.4062-13.664 0.074219-2.5312 0.14453-5.0664 0.21875-7.5977 0.70703-3.4023 1.418-6.8086 2.125-10.211 0.51172-0.82422 1.0273-1.6523 1.5391-2.4766 0.58594 0.91797 1.1719 1.832 1.7617 2.75-0.95312 2.3828-1.9062 4.7695-2.8594 7.1523 0.66016 0.73437 1.3203 1.4688 1.9805 2.1992 1.0273-1.7227 2.0547-3.4492 3.082-5.1719-0.074218-1.0078-0.14844-2.0156-0.21875-3.0273-0.20312-1.1875-0.40625-2.3789-0.61328-3.5664-1.582-1.9961-3.168-3.9961-4.75-5.9922-1.9258-1.0977-3.8477-2.1914-5.7734-3.2891-0.78125-1.5586-1.5586-3.1172-2.3398-4.6758-1.7031-4.5078-3.4062-9.0156-5.1094-13.527-2.7773-4.332-5.5586-8.6641-8.3359-13-0.19531-1.4844-0.39062-2.9727-0.58594-4.457-2.3516-6.0898-4.6992-12.18-7.0508-18.273-1.2305-3.3594-2.4609-6.7188-3.6914-10.078-1.0234-1.6562-2.0469-3.3125-3.0703-4.9688-0.12109-2.7031-0.24219-5.4062-0.36719-8.1094-1.5586-6.5508-3.1172-13.105-4.6758-19.656-0.65625-3.582-1.3164-7.1602-1.9727-10.742-1.7773-0.60938-3.5547-1.2188-5.3359-1.8281 0.875-0.68359 1.7539-1.3633 2.6289-2.0469 0.12109-5.6992 0.24219-11.398 0.36719-17.098-2.3633-0.48828-4.7266-0.97266-7.0898-1.4609 0.78125-0.875 1.5586-1.7539 2.3398-2.6289-7.9414-1.8281-15.879-3.6523-23.82-5.4805-1.7305 2.7773-3.457 5.5547-5.1875 8.332-0.46094 7.5977-0.92578 15.199-1.3867 22.797-2.2422-0.17188-4.4805-0.33984-6.7227-0.51172-0.24219-4.4102-0.48828-8.8164-0.73047-13.227-50.199-3.0703-100.4-6.1367-150.6-9.207-2.4844-6.4297-4.9688-12.859-7.4531-19.289-48.672 0.09375-97.348 0.18359-146.02 0.27344z"/>
  <path d="m469.35 477.71v0.95312l2.5586 2.6289h5.4062l-0.36328-1.0234h-4.0195l-1.4609-1.6055z"/>
  <path d="m556.89 371.32 0.58594-3.0664 1.3164-1.3164v4.3828l0.875 2.0469-2.1914-0.80469z"/>
  <path d="m299.31 275.46 5.3359-0.36719-1.0234 2.6328z"/>
 </g>
</svg>
