<?xml version="1.0" encoding="UTF-8"?>
<svg width="752pt" height="752pt" version="1.1" viewBox="0 0 752 752" xmlns="http://www.w3.org/2000/svg">
 <defs>
  <clipPath id="b">
   <path d="m231 139.21h260v207.79h-260z"/>
  </clipPath>
  <clipPath id="a">
   <path d="m198 583h326v29.793h-326z"/>
  </clipPath>
 </defs>
 <path d="m228.01 435.2h29.598v118.39h-29.598z"/>
 <path d="m287.2 435.2h29.598v118.39h-29.598z"/>
 <path d="m346.4 435.2h29.598v118.39h-29.598z"/>
 <path d="m405.6 435.2h29.598v118.39h-29.598z"/>
 <path d="m464.8 435.2h29.598v118.39h-29.598z"/>
 <path d="m213.21 405.6h295.99c8.1719 0 14.801-6.6328 14.801-14.801s-6.6289-14.801-14.801-14.801h-295.99c-8.168 0-14.797 6.6328-14.797 14.801s6.6289 14.801 14.797 14.801z"/>
 <g clip-path="url(#b)">
  <path d="m376 244.08v-45.668h88.797l-29.598-29.598 29.598-29.598-118.39-0.003906v104.87c-56.594 6.3633-102.41 47.805-114.84 102.32h259.29c-12.43-54.52-58.277-95.961-114.84-102.32z"/>
 </g>
 <g clip-path="url(#a)">
  <path d="m198.41 583.19h325.59v29.598h-325.59z"/>
 </g>
</svg>
