<?xml version="1.0" encoding="UTF-8"?>
<svg width="752pt" height="752pt" version="1.1" viewBox="0 0 752 752" xmlns="http://www.w3.org/2000/svg">
 <path d="m302.32 385.05c-39.602 6.6719-81.625-7.082-109.47-39.898-28-33-34.648-77.012-21.324-115.14l57.969 67.406c21.508 25.012 59.219 27.852 84.23 6.3438 25.012-21.508 27.852-59.223 6.3438-84.234l-57.27-66.594c39.633-6.7188 81.715 7.0273 109.59 39.879 28.258 33.301 34.77 77.812 20.953 116.19 1.5156 1.4297 2.9727 2.9492 4.3594 4.5625 44.68 51.957 117.52 136.65 162.2 188.61 21.508 25.008 18.668 62.719-6.3438 84.23-25.012 21.508-62.723 18.668-84.23-6.3438-44.684-51.953-117.52-136.65-162.2-188.61-1.7656-2.0547-3.3672-4.1914-4.8047-6.3984z" fill-rule="evenodd"/>
</svg>
